<!DOCTYPE svg PUBLIC "-//W3C//DTD SVG 1.1//EN" "http://www.w3.org/Graphics/SVG/1.1/DTD/svg11.dtd">
<!-- Uploaded to: SVG Repo, www.svgrepo.com, Transformed by: SVG Repo Mixer Tools -->
<svg fill="#ffffff" height="800px" width="800px" version="1.1" id="Capa_1" xmlns="http://www.w3.org/2000/svg" xmlns:xlink="http://www.w3.org/1999/xlink" viewBox="0 0 292.76 292.76" xml:space="preserve" stroke="#ffffff" stroke-width="0.00292762">
<g id="SVGRepo_bgCarrier" stroke-width="0"/>
<g id="SVGRepo_tracerCarrier" stroke-linecap="round" stroke-linejoin="round" stroke="#CCCCCC" stroke-width="0.585524"/>
<g id="SVGRepo_iconCarrier"> <g> <path d="M209.129,121.871c0.936,0.406,1.908-0.549,1.492-1.48c-3.149-7.042-0.455-16.832,4.378-21.715 c4.886-4.938,5.55-8.917,5.074-14.31c-0.085-0.966,1.019-1.601,1.794-1.018c4.926,3.704,6.891,12.2,4.878,18.694 c-0.255,0.823,0.474,1.621,1.315,1.435c1.789-0.396,4.361-1.463,5.686-4.333c0.244-0.529,0.835-0.824,1.386-0.632 c6.627,2.302,10.029,13.358,7.266,22.637c-0.263,0.883,0.612,1.692,1.477,1.374c8.885-3.27,15.409-26.685-2.885-41.945 c-13.372-11.155-10.202-20.899-8.045-24.782c0.449-0.809-0.222-1.788-1.139-1.664c-4.413,0.599-13.732,3.685-15.894,18.915 c-0.004,0.032-0.005,0.063-0.009,0.095c-2.746-2.412-6.668-2.859-9.727-2.751c-1.164,0.041-1.507,1.63-0.461,2.143 c12.394,6.07-3.423,18.067-6.319,28.287C195.644,114.064,204.301,119.779,209.129,121.871z"/> <path d="M270.099,162.89h-89.05c-5.522,0-10,4.478-10,10c0,5.523,4.478,10,10,10h0v103.812c0,3.347,2.713,6.06,6.06,6.06h76.93 c3.347,0,6.06-2.713,6.06-6.06V182.89c5.522,0,10-4.477,10-10C280.099,167.367,275.622,162.89,270.099,162.89z"/> <circle cx="73.902" cy="25.907" r="25.907"/> <path d="M118.486,105.232l19.757,1.458l27.805-8.811l24.657,32.95h-17.319c-0.098,3.355-0.831,6.361-2.296,9.323h17.923 c2.754,7.24,9.739,12.393,17.945,12.393h36.593c10.612,0,19.214-8.602,19.214-19.214c0-1.38-1.119-2.499-2.499-2.499l-57.071-0.004 l-27.911-37.299c3.254-3.195,4.644-8.052,3.173-12.696c-2.085-6.579-9.105-10.225-15.692-8.14l-2.483,0.787l-3.254-4.348 c-1.653-2.209-4.785-2.663-6.999-1.007c-2.211,1.654-2.661,4.788-1.007,6.999l1.164,1.556l-20.127,6.378L104.86,68.94 c-2.929-5.568-8.762-9.369-15.49-9.369H58.161c-9.665,0-17.501,7.835-17.501,17.501v89.613l-1.87,44.699l-24.993,60.661 c-3.155,7.659,0.495,16.427,8.155,19.583c7.653,3.155,16.425-0.492,19.583-8.155l26-63.105c0.666-1.617,1.045-3.339,1.118-5.087 c1.259-30.087,1.732-41.264,1.905-45.503c0.066-1.628,1.405-2.915,3.034-2.915h0.002c1.28,0,2.424,0.799,2.865,2.001l14.842,40.465 l-13.834,65.324c-1.716,8.104,3.463,16.065,11.567,17.782c8.107,1.715,16.065-3.465,17.782-11.567l14.728-69.546 c0.584-2.758,0.379-5.626-0.592-8.273l-14.083-38.396v-15.154l-7.411-0.547c-10.22-0.754-17.344-8.361-18.84-13.521L68.758,94.526 l21.466,38.119l0,0c2.063,3.662,5.814,6.026,9.972,6.333l49.806,3.675c6.856,0.509,12.876-4.638,13.386-11.546 c0.508-6.887-4.663-12.878-11.546-13.386l-43.121-3.182L89.28,80.019l18.629,19.288L118.486,105.232z"/> </g> </g>
</svg>