<!DOCTYPE svg PUBLIC "-//W3C//DTD SVG 1.1//EN" "http://www.w3.org/Graphics/SVG/1.1/DTD/svg11.dtd">
<!-- Uploaded to: SVG Repo, www.svgrepo.com, Transformed by: SVG Repo Mixer Tools -->
<svg width="800px" height="800px" viewBox="0 0 400 400" fill="none" xmlns="http://www.w3.org/2000/svg" stroke="#ffffff">
<g id="SVGRepo_bgCarrier" stroke-width="0"/>
<g id="SVGRepo_tracerCarrier" stroke-linecap="round" stroke-linejoin="round" stroke="#d62424" stroke-width="65.6"> <path d="M252.784 125.24C231.393 157.327 230.502 180.591 199.306 197.436" stroke="#d6d6d6" stroke-opacity="0.9" stroke-width="6.4" stroke-linecap="round" stroke-linejoin="round"/> <path d="M292.896 125.24C304.254 154.998 318.298 172.034 308.939 229.524" stroke="#d6d6d6" stroke-opacity="0.9" stroke-width="6.4" stroke-linecap="round" stroke-linejoin="round"/> <path d="M256.751 43.3909C295.736 19.967 321.281 66.5081 288.709 93.1493C282.147 98.5153 274.647 101.174 266.001 101.174C236.156 101.174 244.578 68.6114 250.864 50.6135" stroke="#d6d6d6" stroke-opacity="0.9" stroke-width="6.4" stroke-linecap="round" stroke-linejoin="round"/> <path d="M252.52 125.733C251.38 204.294 248.745 282.827 247.401 361.216" stroke="#d6d6d6" stroke-opacity="0.9" stroke-width="6.4" stroke-linecap="round" stroke-linejoin="round"/> <path d="M293.474 125.733C291.952 202.715 290.874 283.474 290.874 360.718" stroke="#d6d6d6" stroke-opacity="0.9" stroke-width="6.4" stroke-linecap="round" stroke-linejoin="round"/> <path d="M87 223.176C101.96 291.217 186.063 283.202 207.327 223.691" stroke="#d6d6d6" stroke-opacity="0.9" stroke-width="6.4" stroke-linecap="round" stroke-linejoin="round"/> <path d="M89.6722 220.501C127.509 220.501 166.214 220.501 204.651 220.501" stroke="#d6d6d6" stroke-opacity="0.9" stroke-width="6.4" stroke-linecap="round" stroke-linejoin="round"/> <path d="M127.994 209.848C142.153 210.252 156.295 208.647 170.432 208.707" stroke="#d6d6d6" stroke-opacity="0.5" stroke-width="6.4" stroke-linecap="round" stroke-linejoin="round"/> <path d="M124.541 279.309C112.605 306.055 107.193 334.667 95.5324 361.216" stroke="#d6d6d6" stroke-opacity="0.5" stroke-width="6.4" stroke-linecap="round" stroke-linejoin="round"/> <path d="M148.57 284.427C147.203 309.568 148.57 334.5 148.57 362.922" stroke="#d6d6d6" stroke-opacity="0.5" stroke-width="6.4" stroke-linecap="round" stroke-linejoin="round"/> <path d="M172.319 279.309C177.236 306.989 185.59 333.733 191.089 361.216" stroke="#d6d6d6" stroke-opacity="0.5" stroke-width="6.4" stroke-linecap="round" stroke-linejoin="round"/> <path d="M123.434 317.764C138.494 320.943 153.767 320.403 168.89 320.403" stroke="#d6d6d6" stroke-opacity="0.5" stroke-width="6.4" stroke-linecap="round" stroke-linejoin="round"/> <path d="M121.937 148.968C102.784 170.039 138.305 171.622 122.462 189.668" stroke="#d6d6d6" stroke-opacity="0.5" stroke-width="6.4" stroke-linecap="round" stroke-linejoin="round"/> <path d="M148.407 143.847C133.687 158.875 155.303 167.519 143.637 183.956" stroke="#d6d6d6" stroke-opacity="0.5" stroke-width="6.4" stroke-linecap="round" stroke-linejoin="round"/> <path d="M177.031 144.848C146.65 161.547 190.209 166.188 169.327 184.503" stroke="#d6d6d6" stroke-opacity="0.5" stroke-width="6.4" stroke-linecap="round" stroke-linejoin="round"/> <path d="M161.785 206.319C175.491 206.545 206.41 199.347 219.633 196.958" stroke="#d6d6d6" stroke-opacity="0.9" stroke-width="6.4" stroke-linecap="round" stroke-linejoin="round"/> </g>
<g id="SVGRepo_iconCarrier"> <path d="M252.784 125.24C231.393 157.327 230.502 180.591 199.306 197.436" stroke="#d6d6d6" stroke-opacity="0.9" stroke-width="6.4" stroke-linecap="round" stroke-linejoin="round"/> <path d="M292.896 125.24C304.254 154.998 318.298 172.034 308.939 229.524" stroke="#d6d6d6" stroke-opacity="0.9" stroke-width="6.4" stroke-linecap="round" stroke-linejoin="round"/> <path d="M256.751 43.3909C295.736 19.967 321.281 66.5081 288.709 93.1493C282.147 98.5153 274.647 101.174 266.001 101.174C236.156 101.174 244.578 68.6114 250.864 50.6135" stroke="#d6d6d6" stroke-opacity="0.9" stroke-width="6.4" stroke-linecap="round" stroke-linejoin="round"/> <path d="M252.52 125.733C251.38 204.294 248.745 282.827 247.401 361.216" stroke="#d6d6d6" stroke-opacity="0.9" stroke-width="6.4" stroke-linecap="round" stroke-linejoin="round"/> <path d="M293.474 125.733C291.952 202.715 290.874 283.474 290.874 360.718" stroke="#d6d6d6" stroke-opacity="0.9" stroke-width="6.4" stroke-linecap="round" stroke-linejoin="round"/> <path d="M87 223.176C101.96 291.217 186.063 283.202 207.327 223.691" stroke="#d6d6d6" stroke-opacity="0.9" stroke-width="6.4" stroke-linecap="round" stroke-linejoin="round"/> <path d="M89.6722 220.501C127.509 220.501 166.214 220.501 204.651 220.501" stroke="#d6d6d6" stroke-opacity="0.9" stroke-width="6.4" stroke-linecap="round" stroke-linejoin="round"/> <path d="M127.994 209.848C142.153 210.252 156.295 208.647 170.432 208.707" stroke="#d6d6d6" stroke-opacity="0.5" stroke-width="6.4" stroke-linecap="round" stroke-linejoin="round"/> <path d="M124.541 279.309C112.605 306.055 107.193 334.667 95.5324 361.216" stroke="#d6d6d6" stroke-opacity="0.5" stroke-width="6.4" stroke-linecap="round" stroke-linejoin="round"/> <path d="M148.57 284.427C147.203 309.568 148.57 334.5 148.57 362.922" stroke="#d6d6d6" stroke-opacity="0.5" stroke-width="6.4" stroke-linecap="round" stroke-linejoin="round"/> <path d="M172.319 279.309C177.236 306.989 185.59 333.733 191.089 361.216" stroke="#d6d6d6" stroke-opacity="0.5" stroke-width="6.4" stroke-linecap="round" stroke-linejoin="round"/> <path d="M123.434 317.764C138.494 320.943 153.767 320.403 168.89 320.403" stroke="#d6d6d6" stroke-opacity="0.5" stroke-width="6.4" stroke-linecap="round" stroke-linejoin="round"/> <path d="M121.937 148.968C102.784 170.039 138.305 171.622 122.462 189.668" stroke="#d6d6d6" stroke-opacity="0.5" stroke-width="6.4" stroke-linecap="round" stroke-linejoin="round"/> <path d="M148.407 143.847C133.687 158.875 155.303 167.519 143.637 183.956" stroke="#d6d6d6" stroke-opacity="0.5" stroke-width="6.4" stroke-linecap="round" stroke-linejoin="round"/> <path d="M177.031 144.848C146.65 161.547 190.209 166.188 169.327 184.503" stroke="#d6d6d6" stroke-opacity="0.5" stroke-width="6.4" stroke-linecap="round" stroke-linejoin="round"/> <path d="M161.785 206.319C175.491 206.545 206.41 199.347 219.633 196.958" stroke="#d6d6d6" stroke-opacity="0.9" stroke-width="6.4" stroke-linecap="round" stroke-linejoin="round"/> </g>
</svg>