<?xml version="1.0" encoding="iso-8859-1"?>
<!-- Uploaded to: SVG Repo, www.svgrepo.com, Generator: SVG Repo Mixer Tools -->
<svg height="800px" width="800px" version="1.1" id="Layer_1" xmlns="http://www.w3.org/2000/svg" xmlns:xlink="http://www.w3.org/1999/xlink" 
	 viewBox="0 0 511.976 511.976" xml:space="preserve">
<g>
	<path style="fill:#656D78;" d="M357.985,3.125c-4.156-4.164-10.921-4.164-15.077,0l-45.264,45.264
		c-4.172,4.164-4.172,10.921,0,15.085l22.624,22.632c2.093,2.078,4.812,3.125,7.546,3.125s5.453-1.046,7.547-3.125l45.264-45.264
		c4.156-4.164,4.156-10.921,0-15.085L357.985,3.125z"/>
	<path style="fill:#656D78;" d="M508.851,153.992l-22.623-22.632c-2-2-4.719-3.125-7.547-3.125s-5.547,1.125-7.547,3.125
		l-45.263,45.264c-4.155,4.164-4.155,10.921,0,15.085l22.64,22.632c2.078,2.078,4.812,3.125,7.547,3.125
		c2.719,0,5.452-1.047,7.53-3.125l45.263-45.264c2-2,3.125-4.71,3.125-7.538C511.976,158.703,510.851,155.992,508.851,153.992z"/>
	<path style="fill:#656D78;" d="M90.256,270.861c-2.007-2-4.718-3.125-7.546-3.125s-5.539,1.125-7.546,3.125l-45.256,45.263
		c-2,2-3.125,4.703-3.125,7.547c0,2.828,1.125,5.531,3.125,7.531l22.631,22.639c2.078,2.078,4.812,3.125,7.539,3.125
		c2.734,0,5.46-1.047,7.546-3.125l45.255-45.263c2-2,3.125-4.719,3.125-7.547c0-2.827-1.117-5.546-3.125-7.546L90.256,270.861z"/>
	<path style="fill:#656D78;" d="M218.492,399.104c-2.008-2.016-4.719-3.125-7.547-3.125s-5.539,1.109-7.546,3.125l-45.255,45.248
		c-4.164,4.172-4.164,10.921,0,15.092l22.632,22.625c2.078,2.094,4.812,3.125,7.539,3.125c2.734,0,5.46-1.031,7.546-3.125
		l45.255-45.248c2.008-2.016,3.125-4.719,3.125-7.547s-1.125-5.547-3.125-7.546L218.492,399.104z"/>
</g>
<g>
	<path style="fill:#434A54;" d="M493.759,184.163c-1.922-1.93-4.594-3.125-7.531-3.125c-5.891,0-10.672,4.781-10.672,10.671
		c0,2.945,1.188,5.609,3.125,7.547L493.759,184.163z"/>
	<path style="fill:#434A54;" d="M226.03,451.898c-1.93-1.938-4.594-3.124-7.539-3.124c-5.898,0-10.671,4.78-10.671,10.67
		c0,2.938,1.195,5.609,3.125,7.547L226.03,451.898z"/>
	<path style="fill:#434A54;" d="M327.814,18.211c1.938,1.929,3.125,4.601,3.125,7.546c0,5.891-4.781,10.664-10.671,10.664
		c-2.938,0-5.609-1.188-7.547-3.117L327.814,18.211z"/>
	<path style="fill:#434A54;" d="M60.078,285.954c1.929,1.922,3.125,4.594,3.125,7.531c0,5.89-4.773,10.671-10.664,10.671
		c-2.945,0-5.617-1.188-7.546-3.125L60.078,285.954z"/>
</g>
<path style="fill:#48CFAD;" d="M486.228,25.757c-8.359-8.351-23.874-10.109-35.404-10.109c-15.312,0-40.998,3.086-76.387,17.78
	c-34.857,14.484-70.824,36.803-106.893,66.34c-43.225,35.404-86.066,80.848-127.338,135.079
	C92.319,297.782,46.071,373.231,2.769,459.085c-8.554,16.953,4.789,30.624,11.96,37.982c0.062,0.062,0.125,0.125,0.188,0.188
	c7.633,7.438,15.992,14.719,26.804,14.719l0,0c3.781,0,7.539-0.922,11.163-2.766c148.594-74.934,263.37-156.898,341.163-243.597
	c75.418-84.065,95.245-149.914,100.339-181.685C498.712,56.943,495.666,35.194,486.228,25.757z"/>
<path style="opacity:0.2;fill:#FFFFFF;enable-background:new    ;" d="M394.046,265.611
	c75.418-84.065,95.245-149.914,100.339-181.685c4.327-26.983,1.281-48.732-8.156-58.169c-2.531-2.531-5.734-4.453-9.266-5.914
	c4.672,11.367,5.594,28.694,2.328,48.998c-5.094,31.771-24.904,97.62-100.338,181.686
	c-77.793,86.69-192.569,168.655-341.155,243.604c-3.625,1.828-7.382,2.749-11.164,2.749h-0.008c-7.25,0-13.39-3.265-18.96-7.671
	c2.422,3.094,5,5.734,7.062,7.858c0.062,0.062,0.125,0.125,0.188,0.188c7.633,7.438,15.992,14.719,26.804,14.719l0,0
	c3.781,0,7.539-0.922,11.163-2.766C201.477,434.274,316.253,352.309,394.046,265.611z"/>
<g>
	<path style="fill:#E6E9ED;" d="M403.248,67.896c-5.891,0-10.671,4.773-10.671,10.663c0,5.891,4.78,10.671,10.671,10.671
		s10.672-4.781,10.672-10.671S409.138,67.896,403.248,67.896z"/>
	<path style="fill:#E6E9ED;" d="M433.418,98.066c-5.89,0-10.67,4.773-10.67,10.671c0,5.89,4.78,10.664,10.67,10.664
		c5.891,0,10.672-4.773,10.672-10.664C444.09,102.839,439.308,98.066,433.418,98.066z"/>
	<path style="fill:#E6E9ED;" d="M373.078,98.066c-5.891,0-10.672,4.773-10.672,10.671c0,5.89,4.781,10.664,10.672,10.664
		s10.672-4.773,10.672-10.664C383.75,102.839,378.968,98.066,373.078,98.066z"/>
	<path style="fill:#E6E9ED;" d="M403.248,128.236c-5.891,0-10.671,4.781-10.671,10.671s4.78,10.663,10.671,10.663
		s10.672-4.772,10.672-10.663S409.138,128.236,403.248,128.236z"/>
	<path style="fill:#E6E9ED;" d="M135.511,335.624c-5.89,0-10.663,4.78-10.671,10.671c0,5.89,4.781,10.671,10.671,10.671
		c5.891,0,10.671-4.781,10.671-10.671C146.183,340.404,141.402,335.624,135.511,335.624z"/>
	<path style="fill:#E6E9ED;" d="M165.682,365.794c-5.89,0-10.664,4.781-10.664,10.671c0,5.891,4.773,10.671,10.664,10.671
		c5.898,0,10.671-4.78,10.671-10.671C176.353,370.575,171.58,365.794,165.682,365.794z"/>
	<path style="fill:#E6E9ED;" d="M105.342,365.794c-5.891,0-10.671,4.781-10.671,10.671c0,5.891,4.781,10.671,10.671,10.671
		s10.664-4.78,10.664-10.671C116.005,370.575,111.232,365.794,105.342,365.794z"/>
	<path style="fill:#E6E9ED;" d="M135.511,395.979c-5.89,0-10.663,4.766-10.663,10.656c-0.008,5.89,4.773,10.671,10.663,10.671
		c5.891,0,10.671-4.781,10.671-10.671C146.183,400.745,141.402,395.979,135.511,395.979z"/>
</g>
</svg>